<mxfile host="65bd71144e">
    <diagram id="LaQVf6sjeVobTSpsn73h" name="Page-1">
        <mxGraphModel dx="3393" dy="2577" grid="1" gridSize="10" guides="1" tooltips="1" connect="1" arrows="1" fold="1" page="1" pageScale="1" pageWidth="3300" pageHeight="4681" math="0" shadow="0">
            <root>
                <mxCell id="0"/>
                <mxCell id="1" parent="0"/>
                <mxCell id="3" value="Arboresence du site mediathÃ©que" style="rounded=1;whiteSpace=wrap;html=1;fontSize=58;" vertex="1" parent="1">
                    <mxGeometry y="30" width="3220" height="60" as="geometry"/>
                </mxCell>
                <mxCell id="17" value="" style="edgeStyle=orthogonalEdgeStyle;html=1;fontSize=53;" edge="1" parent="1" source="11" target="16">
                    <mxGeometry relative="1" as="geometry">
                        <Array as="points">
                            <mxPoint x="1155" y="360"/>
                            <mxPoint x="150" y="360"/>
                        </Array>
                    </mxGeometry>
                </mxCell>
                <mxCell id="21" value="" style="edgeStyle=orthogonalEdgeStyle;html=1;fontSize=53;" edge="1" parent="1" source="11" target="20">
                    <mxGeometry relative="1" as="geometry">
                        <Array as="points">
                            <mxPoint x="1155" y="360"/>
                            <mxPoint x="490" y="360"/>
                        </Array>
                    </mxGeometry>
                </mxCell>
                <mxCell id="25" value="" style="edgeStyle=orthogonalEdgeStyle;html=1;fontSize=53;" edge="1" parent="1" source="11" target="24">
                    <mxGeometry relative="1" as="geometry">
                        <Array as="points">
                            <mxPoint x="1155" y="360"/>
                            <mxPoint x="865" y="360"/>
                        </Array>
                    </mxGeometry>
                </mxCell>
                <mxCell id="28" value="" style="edgeStyle=orthogonalEdgeStyle;html=1;fontSize=53;entryX=0.417;entryY=0.018;entryDx=0;entryDy=0;entryPerimeter=0;" edge="1" parent="1" source="11" target="26">
                    <mxGeometry relative="1" as="geometry">
                        <Array as="points">
                            <mxPoint x="1155" y="360"/>
                            <mxPoint x="1440" y="360"/>
                            <mxPoint x="1440" y="420"/>
                        </Array>
                    </mxGeometry>
                </mxCell>
                <mxCell id="41" style="edgeStyle=orthogonalEdgeStyle;html=1;entryX=0.5;entryY=0;entryDx=0;entryDy=0;fontSize=39;" edge="1" parent="1" source="11" target="40">
                    <mxGeometry relative="1" as="geometry">
                        <Array as="points">
                            <mxPoint x="1155" y="360"/>
                            <mxPoint x="1875" y="360"/>
                        </Array>
                    </mxGeometry>
                </mxCell>
                <mxCell id="53" style="edgeStyle=orthogonalEdgeStyle;html=1;entryX=0.5;entryY=0;entryDx=0;entryDy=0;fontSize=39;" edge="1" parent="1" source="11" target="49">
                    <mxGeometry relative="1" as="geometry">
                        <Array as="points">
                            <mxPoint x="1155" y="360"/>
                            <mxPoint x="2295" y="360"/>
                        </Array>
                    </mxGeometry>
                </mxCell>
                <mxCell id="57" style="edgeStyle=orthogonalEdgeStyle;html=1;fontSize=39;" edge="1" parent="1" source="11" target="56">
                    <mxGeometry relative="1" as="geometry">
                        <Array as="points">
                            <mxPoint x="1155" y="360"/>
                            <mxPoint x="2845" y="360"/>
                        </Array>
                    </mxGeometry>
                </mxCell>
                <mxCell id="11" value="Accueil" style="rounded=0;whiteSpace=wrap;html=1;fontSize=53;" vertex="1" parent="1">
                    <mxGeometry x="1000" y="160" width="310" height="120" as="geometry"/>
                </mxCell>
                <mxCell id="13" value="Login" style="rounded=0;whiteSpace=wrap;html=1;fontSize=53;" vertex="1" parent="1">
                    <mxGeometry x="30" y="430" width="240" height="110" as="geometry"/>
                </mxCell>
                <mxCell id="14" value="S'inscrire" style="rounded=0;whiteSpace=wrap;html=1;fontSize=53;" vertex="1" parent="1">
                    <mxGeometry x="360" y="430" width="260" height="110" as="geometry"/>
                </mxCell>
                <mxCell id="31" value="" style="edgeStyle=orthogonalEdgeStyle;html=1;fontSize=53;" edge="1" parent="1" source="15" target="30">
                    <mxGeometry relative="1" as="geometry">
                        <Array as="points">
                            <mxPoint x="760" y="610"/>
                            <mxPoint x="760" y="610"/>
                        </Array>
                    </mxGeometry>
                </mxCell>
                <mxCell id="34" value="" style="edgeStyle=orthogonalEdgeStyle;html=1;fontSize=39;" edge="1" parent="1" source="15" target="33">
                    <mxGeometry relative="1" as="geometry">
                        <Array as="points">
                            <mxPoint x="760" y="780"/>
                        </Array>
                    </mxGeometry>
                </mxCell>
                <mxCell id="36" value="" style="edgeStyle=orthogonalEdgeStyle;html=1;fontSize=39;entryX=0;entryY=0.5;entryDx=0;entryDy=0;" edge="1" parent="1" source="15" target="35">
                    <mxGeometry relative="1" as="geometry">
                        <mxPoint x="760" y="890" as="targetPoint"/>
                        <Array as="points">
                            <mxPoint x="760" y="895"/>
                        </Array>
                    </mxGeometry>
                </mxCell>
                <mxCell id="38" value="" style="edgeStyle=orthogonalEdgeStyle;html=1;fontSize=39;" edge="1" parent="1" source="15">
                    <mxGeometry relative="1" as="geometry">
                        <mxPoint x="840" y="1010" as="targetPoint"/>
                        <Array as="points">
                            <mxPoint x="760" y="1010"/>
                        </Array>
                    </mxGeometry>
                </mxCell>
                <mxCell id="15" value="Documents" style="rounded=0;whiteSpace=wrap;html=1;fontSize=53;" vertex="1" parent="1">
                    <mxGeometry x="720" y="430" width="290" height="110" as="geometry"/>
                </mxCell>
                <mxCell id="16" value="" style="shape=waypoint;sketch=0;size=6;pointerEvents=1;points=[];fillColor=default;resizable=0;rotatable=0;perimeter=centerPerimeter;snapToPoint=1;fontSize=53;rounded=0;" vertex="1" parent="1">
                    <mxGeometry x="140" y="420" width="20" height="20" as="geometry"/>
                </mxCell>
                <mxCell id="19" value="" style="shape=waypoint;sketch=0;size=6;pointerEvents=1;points=[];fillColor=default;resizable=0;rotatable=0;perimeter=centerPerimeter;snapToPoint=1;fontSize=53;rounded=0;" vertex="1" parent="1">
                    <mxGeometry x="610" y="460" width="20" height="20" as="geometry"/>
                </mxCell>
                <mxCell id="20" value="" style="shape=waypoint;sketch=0;size=6;pointerEvents=1;points=[];fillColor=default;resizable=0;rotatable=0;perimeter=centerPerimeter;snapToPoint=1;fontSize=53;rounded=0;" vertex="1" parent="1">
                    <mxGeometry x="480" y="410" width="20" height="20" as="geometry"/>
                </mxCell>
                <mxCell id="24" value="" style="shape=waypoint;sketch=0;size=6;pointerEvents=1;points=[];fillColor=default;resizable=0;rotatable=0;perimeter=centerPerimeter;snapToPoint=1;fontSize=53;rounded=0;" vertex="1" parent="1">
                    <mxGeometry x="855" y="410" width="20" height="20" as="geometry"/>
                </mxCell>
                <mxCell id="43" style="html=1;exitX=0.5;exitY=1;exitDx=0;exitDy=0;fontSize=39;" edge="1" parent="1" source="26" target="42">
                    <mxGeometry relative="1" as="geometry"/>
                </mxCell>
                <mxCell id="46" style="edgeStyle=none;html=1;fontSize=39;" edge="1" parent="1" source="26" target="45">
                    <mxGeometry relative="1" as="geometry"/>
                </mxCell>
                <mxCell id="48" style="edgeStyle=none;html=1;entryX=0.5;entryY=0;entryDx=0;entryDy=0;fontSize=39;exitX=0.5;exitY=1;exitDx=0;exitDy=0;" edge="1" parent="1" source="26" target="47">
                    <mxGeometry relative="1" as="geometry">
                        <mxPoint x="1460" y="560" as="sourcePoint"/>
                        <Array as="points"/>
                    </mxGeometry>
                </mxCell>
                <mxCell id="26" value="A propos" style="rounded=0;whiteSpace=wrap;html=1;fontSize=53;" vertex="1" parent="1">
                    <mxGeometry x="1320" y="440" width="290" height="110" as="geometry"/>
                </mxCell>
                <mxCell id="27" value="" style="shape=waypoint;sketch=0;size=6;pointerEvents=1;points=[];fillColor=default;resizable=0;rotatable=0;perimeter=centerPerimeter;snapToPoint=1;fontSize=53;rounded=0;" vertex="1" parent="1">
                    <mxGeometry x="1370" y="410" width="20" height="20" as="geometry"/>
                </mxCell>
                <mxCell id="30" value="" style="shape=waypoint;sketch=0;size=6;pointerEvents=1;points=[];fillColor=default;resizable=0;rotatable=0;perimeter=centerPerimeter;snapToPoint=1;fontSize=53;rounded=0;" vertex="1" parent="1">
                    <mxGeometry x="820" y="650" width="20" height="20" as="geometry"/>
                </mxCell>
                <mxCell id="32" value="&lt;font style=&quot;font-size: 39px;&quot;&gt;Livres&lt;/font&gt;" style="rounded=0;whiteSpace=wrap;html=1;fontSize=53;" vertex="1" parent="1">
                    <mxGeometry x="840" y="640" width="120" height="50" as="geometry"/>
                </mxCell>
                <mxCell id="33" value="&lt;font style=&quot;font-size: 39px;&quot;&gt;Journeaux&lt;/font&gt;" style="rounded=0;whiteSpace=wrap;html=1;fontSize=53;" vertex="1" parent="1">
                    <mxGeometry x="840" y="760" width="190" height="50" as="geometry"/>
                </mxCell>
                <mxCell id="35" value="&lt;font style=&quot;font-size: 39px;&quot;&gt;Microfilms&lt;/font&gt;" style="rounded=0;whiteSpace=wrap;html=1;fontSize=53;" vertex="1" parent="1">
                    <mxGeometry x="840" y="870" width="190" height="50" as="geometry"/>
                </mxCell>
                <mxCell id="37" value="&lt;font style=&quot;font-size: 39px;&quot;&gt;Cd-Rom&lt;/font&gt;" style="rounded=0;whiteSpace=wrap;html=1;fontSize=53;" vertex="1" parent="1">
                    <mxGeometry x="840" y="990" width="190" height="50" as="geometry"/>
                </mxCell>
                <mxCell id="40" value="Contact" style="rounded=0;whiteSpace=wrap;html=1;fontSize=53;" vertex="1" parent="1">
                    <mxGeometry x="1730" y="430" width="290" height="110" as="geometry"/>
                </mxCell>
                <mxCell id="42" value="&lt;font style=&quot;font-size: 39px;&quot;&gt;Histoire&lt;/font&gt;" style="rounded=0;whiteSpace=wrap;html=1;fontSize=53;" vertex="1" parent="1">
                    <mxGeometry x="1120" y="640" width="190" height="50" as="geometry"/>
                </mxCell>
                <mxCell id="45" value="&lt;font style=&quot;font-size: 39px;&quot;&gt;Newsletter&lt;/font&gt;" style="rounded=0;whiteSpace=wrap;html=1;fontSize=53;" vertex="1" parent="1">
                    <mxGeometry x="1370" y="790" width="190" height="50" as="geometry"/>
                </mxCell>
                <mxCell id="47" value="&lt;font style=&quot;font-size: 39px;&quot;&gt;Notre Ã©quipe&lt;/font&gt;" style="rounded=0;whiteSpace=wrap;html=1;fontSize=53;" vertex="1" parent="1">
                    <mxGeometry x="1560" y="650" width="250" height="50" as="geometry"/>
                </mxCell>
                <mxCell id="52" style="edgeStyle=none;html=1;fontSize=39;" edge="1" parent="1" source="49" target="50">
                    <mxGeometry relative="1" as="geometry"/>
                </mxCell>
                <mxCell id="55" style="html=1;fontSize=39;" edge="1" parent="1" source="49" target="54">
                    <mxGeometry relative="1" as="geometry"/>
                </mxCell>
                <mxCell id="49" value="Services" style="rounded=0;whiteSpace=wrap;html=1;fontSize=53;" vertex="1" parent="1">
                    <mxGeometry x="2150" y="430" width="290" height="110" as="geometry"/>
                </mxCell>
                <mxCell id="50" value="&lt;font style=&quot;font-size: 39px;&quot;&gt;EvÃ©nements&lt;/font&gt;" style="rounded=0;whiteSpace=wrap;html=1;fontSize=53;" vertex="1" parent="1">
                    <mxGeometry x="1950" y="650" width="250" height="50" as="geometry"/>
                </mxCell>
                <mxCell id="54" value="&lt;font style=&quot;font-size: 39px;&quot;&gt;ConfÃ©rences&lt;/font&gt;" style="rounded=0;whiteSpace=wrap;html=1;fontSize=53;" vertex="1" parent="1">
                    <mxGeometry x="2370" y="650" width="250" height="50" as="geometry"/>
                </mxCell>
                <mxCell id="56" value="Recherche" style="rounded=0;whiteSpace=wrap;html=1;fontSize=53;" vertex="1" parent="1">
                    <mxGeometry x="2700" y="430" width="290" height="110" as="geometry"/>
                </mxCell>
            </root>
        </mxGraphModel>
    </diagram>
</mxfile>